<svg xmlns="http://www.w3.org/2000/svg" viewBox="0 0 407.95 65.27"><defs><style>.cls-1{fill:#ccc;}.cls-2{fill:#cbcbcb;}</style></defs><g id="Capa_2" data-name="Capa 2"><g id="Capa_1-2" data-name="Capa 1"><path class="cls-1" d="M251.2,38.23q76.08,0,152.15-.08c3.59,0,4.81.91,4.57,4.55-.31,4.6-.18,9.23,0,13.85.08,2.63-1,3.68-3.54,3.43a21.1,21.1,0,0,0-2.25,0H99.67c-5.12,0-5.12,0-5.12-4.94,0-4.37.19-8.74-.06-13.1-.18-3,.9-3.77,3.81-3.76,27.11.1,54.22.06,81.32.06Z"/><path class="cls-2" d="M192.76,30.78c-31.36,0-62.71-.05-94.06.07-3.22,0-4.4-.69-4.23-4.11a162,162,0,0,0,0-17.21c-.2-3.59,1.12-4.28,4.43-4.28Q184,5.39,269,5.32c6.12,0,12.24.12,18.36-.06,2.73-.08,3.75.65,3.65,3.54-.2,6.1-.23,12.23,0,18.33.13,3.11-1,3.71-3.86,3.7Q240,30.71,192.76,30.78Z"/><path class="cls-2" d="M33.11.05c17.06-1,32.48,15.72,32.43,32.6,0,16.32-14.27,32.78-33,32.62C14.46,65.11.26,50.59,0,32.28-.23,15.35,15.13-1,33.11.05Z"/></g></g></svg>